thaisansnew-regular.ufo
<glyph name="exclam" format="1">
  <advance width="134"/>
  <unicode hex="0021"/>
  <outline>
    <contour>
      <point x="97" y="120" type="line" name="hr00"/>
      <point x="97" y="520" type="line"/>
      <point x="37" y="520" type="line"/>
      <point x="37" y="120" type="line"/>
    </contour>
    <contour>
      <point x="97" y="0" type="line"/>
      <point x="97" y="60" type="line"/>
      <point x="37" y="60" type="line"/>
      <point x="37" y="0" type="line"/>
    </contour>
  </outline>
</glyph>
<glyph name="quotedbl" format="1">
  <advance width="244"/>
  <unicode hex="0022"/>
  <outline>
    <contour>
      <point x="37" y="360" type="line" name="hr00"/>
      <point x="97" y="360" type="line"/>
      <point x="97" y="520" type="line"/>
      <point x="37" y="520" type="line"/>
    </contour>
    <contour>
      <point x="147" y="360" type="line"/>
      <point x="207" y="360" type="line"/>
      <point x="207" y="520" type="line"/>
      <point x="147" y="520" type="line"/>
    </contour>
  </outline>
</glyph>
<glyph name="dollar" format="1">
  <advance width="394"/>
  <unicode hex="0024"/>
  <outline>
    <contour>
      <point x="337" y="420" type="curve" name="hr00"/>
      <point x="337" y="470" type="line"/>
      <point x="330" y="475"/>
      <point x="321" y="479"/>
      <point x="310" y="482" type="curve" smooth="yes"/>
      <point x="291" y="489"/>
      <point x="266" y="495"/>
      <point x="230" y="498" type="curve"/>
      <point x="230" y="574" type="line"/>
      <point x="173" y="574" type="line"/>
      <point x="173" y="498" type="line"/>
      <point x="104" y="490"/>
      <point x="37" y="451"/>
      <point x="37" y="380" type="curve" smooth="yes"/>
      <point x="37" y="211"/>
      <point x="297" y="277"/>
      <point x="297" y="140" type="curve" smooth="yes"/>
      <point x="297" y="77"/>
      <point x="256" y="40"/>
      <point x="183" y="40" type="curve" smooth="yes"/>
      <point x="144" y="40"/>
      <point x="108" y="49"/>
      <point x="81" y="60" type="curve" smooth="yes"/>
      <point x="65" y="66"/>
      <point x="50" y="73"/>
      <point x="37" y="80" type="curve"/>
      <point x="37" y="30" type="line"/>
      <point x="46" y="23"/>
      <point x="58" y="17"/>
      <point x="71" y="12" type="curve" smooth="yes"/>
      <point x="94" y="3"/>
      <point x="128" y="-7"/>
      <point x="173" y="-8" type="curve"/>
      <point x="173" y="-82" type="line"/>
      <point x="230" y="-82" type="line"/>
      <point x="230" y="-5" type="line"/>
      <point x="330" y="6"/>
      <point x="357" y="72"/>
      <point x="357" y="140" type="curve" smooth="yes"/>
      <point x="357" y="320"/>
      <point x="97" y="267"/>
      <point x="97" y="380" type="curve" smooth="yes"/>
      <point x="97" y="423"/>
      <point x="151" y="450"/>
      <point x="197" y="450" type="curve" smooth="yes"/>
      <point x="244" y="450"/>
      <point x="277" y="442"/>
      <point x="301" y="435" type="curve"/>
      <point x="314" y="430"/>
      <point x="326" y="425"/>
    </contour>
  </outline>
</glyph>
<glyph name="asterisk" format="1">
  <advance width="289"/>
  <unicode hex="002A"/>
  <outline>
    <contour>
      <point x="70" y="340" type="line" name="hr00"/>
      <point x="127" y="394" type="line"/>
      <point x="116" y="315" type="line"/>
      <point x="172" y="315" type="line"/>
      <point x="160" y="395" type="line"/>
      <point x="219" y="340" type="line"/>
      <point x="252" y="385" type="line"/>
      <point x="170" y="427" type="line"/>
      <point x="252" y="469" type="line"/>
      <point x="219" y="514" type="line"/>
      <point x="160" y="459" type="line"/>
      <point x="172" y="539" type="line"/>
      <point x="116" y="539" type="line"/>
      <point x="127" y="460" type="line"/>
      <point x="70" y="514" type="line"/>
      <point x="37" y="469" type="line"/>
      <point x="118" y="427" type="line"/>
      <point x="37" y="385" type="line"/>
    </contour>
  </outline>
</glyph>
<glyph name="period" format="1">
  <advance width="134"/>
  <unicode hex="002E"/>
  <outline>
    <contour>
      <point x="97" y="0" type="line" name="hr00"/>
      <point x="97" y="60" type="line"/>
      <point x="37" y="60" type="line"/>
      <point x="37" y="0" type="line"/>
    </contour>
  </outline>
</glyph>
<glyph name="equal" format="1">
  <advance width="374"/>
  <unicode hex="003D"/>
  <outline>
    <contour>
      <point x="337" y="230" type="line" name="hr00"/>
      <point x="337" y="280" type="line"/>
      <point x="37" y="280" type="line"/>
      <point x="37" y="230" type="line"/>
    </contour>
    <contour>
      <point x="337" y="120" type="line"/>
      <point x="337" y="170" type="line"/>
      <point x="37" y="170" type="line"/>
      <point x="37" y="120" type="line"/>
    </contour>
  </outline>
</glyph>
<glyph name="C" format="1">
  <advance width="409"/>
  <unicode hex="0043"/>
  <outline>
    <contour>
      <point x="402" y="20" type="curve" name="hr00"/>
      <point x="382" y="70" type="line"/>
      <point x="343" y="50"/>
      <point x="319" y="40"/>
      <point x="268" y="40" type="curve" smooth="yes"/>
      <point x="155" y="40"/>
      <point x="82" y="115"/>
      <point x="82" y="240" type="curve" smooth="yes"/>
      <point x="82" y="366"/>
      <point x="156" y="450"/>
      <point x="268" y="450" type="curve" smooth="yes"/>
      <point x="311" y="450"/>
      <point x="343" y="449"/>
      <point x="382" y="430" type="curve"/>
      <point x="402" y="480" type="line"/>
      <point x="370" y="495"/>
      <point x="317" y="500"/>
      <point x="268" y="500" type="curve" smooth="yes"/>
      <point x="122" y="500"/>
      <point x="22" y="400"/>
      <point x="22" y="240" type="curve" smooth="yes"/>
      <point x="22" y="88"/>
      <point x="117" y="-8"/>
      <point x="261" y="-8" type="curve" smooth="yes"/>
      <point x="316" y="-8"/>
      <point x="363" y="-1"/>
    </contour>
  </outline>
</glyph>
<glyph name="F" format="1">
  <advance width="304"/>
  <unicode hex="0046"/>
  <outline>
    <contour>
      <point x="277" y="220" type="line" name="hr00"/>
      <point x="277" y="270" type="line"/>
      <point x="97" y="270" type="line"/>
      <point x="97" y="440" type="line"/>
      <point x="297" y="440" type="line"/>
      <point x="297" y="490" type="line"/>
      <point x="37" y="490" type="line"/>
      <point x="37" y="0" type="line"/>
      <point x="97" y="0" type="line"/>
      <point x="97" y="220" type="line"/>
    </contour>
  </outline>
</glyph>
<glyph name="S" format="1">
  <advance width="394"/>
  <unicode hex="0053"/>
  <outline>
    <contour>
      <point x="337" y="420" type="curve" name="hr00"/>
      <point x="337" y="470" type="line"/>
      <point x="328" y="475"/>
      <point x="316" y="480"/>
      <point x="303" y="485" type="curve" smooth="yes"/>
      <point x="280" y="492"/>
      <point x="244" y="500"/>
      <point x="197" y="500" type="curve" smooth="yes"/>
      <point x="119" y="500"/>
      <point x="37" y="457"/>
      <point x="37" y="380" type="curve" smooth="yes"/>
      <point x="37" y="211"/>
      <point x="297" y="277"/>
      <point x="297" y="140" type="curve" smooth="yes"/>
      <point x="297" y="77"/>
      <point x="256" y="40"/>
      <point x="183" y="40" type="curve" smooth="yes"/>
      <point x="144" y="40"/>
      <point x="108" y="49"/>
      <point x="81" y="60" type="curve" smooth="yes"/>
      <point x="65" y="66"/>
      <point x="50" y="73"/>
      <point x="37" y="80" type="curve"/>
      <point x="37" y="30" type="line"/>
      <point x="47" y="23"/>
      <point x="59" y="16"/>
      <point x="74" y="11" type="curve"/>
      <point x="98" y="0"/>
      <point x="135" y="-8"/>
      <point x="183" y="-8" type="curve" smooth="yes"/>
      <point x="323" y="-8"/>
      <point x="357" y="62"/>
      <point x="357" y="140" type="curve" smooth="yes"/>
      <point x="357" y="320"/>
      <point x="97" y="267"/>
      <point x="97" y="380" type="curve" smooth="yes"/>
      <point x="97" y="423"/>
      <point x="151" y="450"/>
      <point x="197" y="450" type="curve" smooth="yes"/>
      <point x="244" y="450"/>
      <point x="277" y="442"/>
      <point x="301" y="435" type="curve"/>
      <point x="314" y="430"/>
      <point x="326" y="425"/>
    </contour>
  </outline>
</glyph>
<glyph name="backslash" format="1">
  <advance width="231"/>
  <unicode hex="005C"/>
  <outline>
    <contour>
      <point x="63" y="602" type="line" name="hr00"/>
      <point x="7" y="602" type="line"/>
      <point x="168" y="0" type="line"/>
      <point x="224" y="0" type="line"/>
    </contour>
  </outline>
</glyph>
<glyph name="asciicircum" format="1">
  <advance width="452"/>
  <unicode hex="005E"/>
  <outline>
    <contour>
      <point x="216" y="445" type="line" name="hr00"/>
      <point x="359" y="193" type="line"/>
      <point x="415" y="193" type="line"/>
      <point x="229" y="525" type="line"/>
      <point x="203" y="525" type="line"/>
      <point x="37" y="193" type="line"/>
      <point x="93" y="193" type="line"/>
    </contour>
  </outline>
</glyph>
<glyph name="e" format="1">
  <advance width="353"/>
  <unicode hex="0065"/>
  <outline>
    <contour>
      <point x="274" y="210" type="curve" name="hr00"/>
      <point x="77" y="210" type="line"/>
      <point x="86" y="274"/>
      <point x="127" y="320"/>
      <point x="182" y="320" type="curve" smooth="yes"/>
      <point x="238" y="320"/>
      <point x="271" y="278"/>
    </contour>
    <contour>
      <point x="331" y="165" type="line"/>
      <point x="331" y="191" type="line" smooth="yes"/>
      <point x="331" y="303"/>
      <point x="274" y="365"/>
      <point x="182" y="365" type="curve" smooth="yes"/>
      <point x="90" y="365"/>
      <point x="22" y="283"/>
      <point x="22" y="174" type="curve" smooth="yes"/>
      <point x="22" y="49"/>
      <point x="93" y="-3"/>
      <point x="193" y="-3" type="curve" smooth="yes"/>
      <point x="229" y="-3"/>
      <point x="257" y="5"/>
      <point x="277" y="13" type="curve" smooth="yes"/>
      <point x="288" y="18"/>
      <point x="298" y="23"/>
      <point x="307" y="30" type="curve"/>
      <point x="287" y="75" type="line"/>
      <point x="282" y="68"/>
      <point x="275" y="62"/>
      <point x="267" y="57" type="curve" smooth="yes"/>
      <point x="252" y="48"/>
      <point x="229" y="40"/>
      <point x="193" y="40" type="curve" smooth="yes"/>
      <point x="128" y="40"/>
      <point x="77" y="80"/>
      <point x="77" y="165" type="curve"/>
    </contour>
  </outline>
</glyph>
<glyph name="i" format="1">
  <advance width="129"/>
  <unicode hex="0069"/>
  <outline>
    <contour>
      <point x="92" y="0" type="line" name="hr00"/>
      <point x="92" y="360" type="line"/>
      <point x="37" y="360" type="line"/>
      <point x="37" y="0" type="line"/>
    </contour>
    <contour>
      <point x="92" y="416" type="line"/>
      <point x="92" y="470" type="line"/>
      <point x="37" y="470" type="line"/>
      <point x="37" y="416" type="line"/>
    </contour>
  </outline>
</glyph>
<glyph name="m" format="1">
  <advance width="619"/>
  <unicode hex="006D"/>
  <outline>
    <contour>
      <point x="582" y="0" type="line" name="hr00"/>
      <point x="582" y="233" type="line" smooth="yes"/>
      <point x="582" y="308"/>
      <point x="544" y="365"/>
      <point x="447" y="365" type="curve" smooth="yes"/>
      <point x="377" y="365"/>
      <point x="336" y="312"/>
      <point x="325" y="296" type="curve"/>
      <point x="306" y="337"/>
      <point x="270" y="365"/>
      <point x="202" y="365" type="curve" smooth="yes"/>
      <point x="126" y="365"/>
      <point x="92" y="304"/>
      <point x="92" y="300" type="curve"/>
      <point x="92" y="360" type="line"/>
      <point x="37" y="360" type="line"/>
      <point x="37" y="0" type="line"/>
      <point x="92" y="0" type="line"/>
      <point x="92" y="255" type="line"/>
      <point x="99" y="266"/>
      <point x="107" y="276"/>
      <point x="116" y="285" type="curve" smooth="yes"/>
      <point x="132" y="300"/>
      <point x="157" y="315"/>
      <point x="192" y="315" type="curve" smooth="yes"/>
      <point x="243" y="315"/>
      <point x="282" y="284"/>
      <point x="282" y="236" type="curve" smooth="yes"/>
      <point x="282" y="0" type="line"/>
      <point x="337" y="0" type="line"/>
      <point x="337" y="255" type="line"/>
      <point x="344" y="266"/>
      <point x="352" y="276"/>
      <point x="361" y="285" type="curve" smooth="yes"/>
      <point x="377" y="300"/>
      <point x="402" y="315"/>
      <point x="437" y="315" type="curve" smooth="yes"/>
      <point x="488" y="315"/>
      <point x="527" y="284"/>
      <point x="527" y="236" type="curve" smooth="yes"/>
      <point x="527" y="0" type="line"/>
    </contour>
  </outline>
</glyph>
<glyph name="s" format="1">
  <advance width="314"/>
  <unicode hex="0073"/>
  <outline>
    <contour>
      <point x="257" y="300" type="curve" name="hr00"/>
      <point x="257" y="345" type="line"/>
      <point x="250" y="350"/>
      <point x="242" y="354"/>
      <point x="233" y="357" type="curve" smooth="yes"/>
      <point x="217" y="364"/>
      <point x="192" y="370"/>
      <point x="157" y="370" type="curve" smooth="yes"/>
      <point x="101" y="370"/>
      <point x="37" y="325"/>
      <point x="37" y="270" type="curve" smooth="yes"/>
      <point x="37" y="144"/>
      <point x="222" y="202"/>
      <point x="222" y="100" type="curve" smooth="yes"/>
      <point x="222" y="56"/>
      <point x="192" y="35"/>
      <point x="137" y="35" type="curve" smooth="yes"/>
      <point x="106" y="35"/>
      <point x="81" y="40"/>
      <point x="64" y="47" type="curve"/>
      <point x="53" y="50"/>
      <point x="44" y="55"/>
      <point x="37" y="60" type="curve"/>
      <point x="37" y="15" type="line"/>
      <point x="44" y="10"/>
      <point x="53" y="6"/>
      <point x="64" y="3" type="curve"/>
      <point x="81" y="-4"/>
      <point x="106" y="-8"/>
      <point x="137" y="-8" type="curve" smooth="yes"/>
      <point x="239" y="-8"/>
      <point x="277" y="44"/>
      <point x="277" y="100" type="curve" smooth="yes"/>
      <point x="277" y="246"/>
      <point x="92" y="188"/>
      <point x="92" y="270" type="curve" smooth="yes"/>
      <point x="92" y="301"/>
      <point x="124" y="325"/>
      <point x="157" y="325" type="curve" smooth="yes"/>
      <point x="190" y="325"/>
      <point x="215" y="319"/>
      <point x="232" y="312" type="curve"/>
      <point x="242" y="309"/>
      <point x="250" y="305"/>
    </contour>
  </outline>
</glyph>
<glyph name="braceleft" format="1">
  <advance width="209"/>
  <unicode hex="007B"/>
  <outline>
    <contour>
      <point x="202" y="-173" type="curve" name="hr00"/>
      <point x="202" y="-124" type="line"/>
      <point x="155" y="-124"/>
      <point x="140" y="-101"/>
      <point x="140" y="-44" type="curve" smooth="yes"/>
      <point x="140" y="70" type="line" smooth="yes"/>
      <point x="140" y="126"/>
      <point x="119" y="162"/>
      <point x="75" y="173" type="curve"/>
      <point x="122" y="186"/>
      <point x="140" y="223"/>
      <point x="140" y="276" type="curve" smooth="yes"/>
      <point x="140" y="396" type="line" smooth="yes"/>
      <point x="140" y="447"/>
      <point x="163" y="473"/>
      <point x="202" y="476" type="curve"/>
      <point x="202" y="525" type="line"/>
      <point x="122" y="521"/>
      <point x="84" y="482"/>
      <point x="84" y="398" type="curve" smooth="yes"/>
      <point x="84" y="281" type="line" smooth="yes"/>
      <point x="84" y="226"/>
      <point x="62" y="201"/>
      <point x="22" y="197" type="curve"/>
      <point x="22" y="154" type="line"/>
      <point x="63" y="149"/>
      <point x="84" y="120"/>
      <point x="84" y="67" type="curve" smooth="yes"/>
      <point x="84" y="-51" type="line" smooth="yes"/>
      <point x="84" y="-132"/>
      <point x="123" y="-173"/>
    </contour>
  </outline>
</glyph>
<glyph name="bar" format="1">
  <advance width="130"/>
  <unicode hex="007C"/>
  <outline>
    <contour>
      <point x="93" y="-124" type="line" name="hr00"/>
      <point x="93" y="574" type="line"/>
      <point x="37" y="574" type="line"/>
      <point x="37" y="-124" type="line"/>
    </contour>
  </outline>
</glyph>
<glyph name="onehalf" format="1">
  <advance width="704"/>
  <unicode hex="00BD"/>
  <outline>
    <contour>
      <point x="574" y="602" type="line" name="hr00"/>
      <point x="518" y="602" type="line"/>
      <point x="157" y="0" type="line"/>
      <point x="213" y="0" type="line"/>
    </contour>
    <contour>
      <point x="137" y="590" type="line"/>
      <point x="105" y="590" type="line"/>
      <point x="100" y="584"/>
      <point x="94" y="578"/>
      <point x="87" y="573" type="curve" smooth="yes"/>
      <point x="76" y="564"/>
      <point x="60" y="553"/>
      <point x="44" y="546" type="curve"/>
      <point x="44" y="518" type="line"/>
      <point x="67" y="523"/>
      <point x="92" y="538"/>
      <point x="104" y="546" type="curve"/>
      <point x="104" y="320" type="line"/>
      <point x="137" y="320" type="line"/>
    </contour>
    <contour>
      <point x="629" y="224" type="curve" smooth="yes"/>
      <point x="629" y="158"/>
      <point x="500" y="112"/>
      <point x="500" y="46" type="curve" smooth="yes"/>
      <point x="500" y="20" type="line"/>
      <point x="673" y="20" type="line"/>
      <point x="673" y="48" type="line"/>
      <point x="534" y="48" type="line"/>
      <point x="542" y="101"/>
      <point x="662" y="146"/>
      <point x="662" y="227" type="curve" smooth="yes"/>
      <point x="662" y="274"/>
      <point x="628" y="300"/>
      <point x="581" y="300" type="curve" smooth="yes"/>
      <point x="550" y="300"/>
      <point x="527" y="292"/>
      <point x="511" y="276" type="curve"/>
      <point x="511" y="248" type="line"/>
      <point x="528" y="265"/>
      <point x="558" y="272"/>
      <point x="581" y="272" type="curve" smooth="yes"/>
      <point x="609" y="272"/>
      <point x="629" y="259"/>
    </contour>
  </outline>
</glyph>
<glyph name="uni0E02" format="1">
  <advance width="359"/>
  <unicode hex="0E02"/>
    <anchor name="b.uni0E38" x="292" y="-75"/>
  <outline>
    <contour>
      <point x="112" y="140" type="curve" smooth="yes" name="hr00"/>
      <point x="112" y="180" type="line" smooth="yes"/>
      <point x="112" y="223"/>
      <point x="131" y="249"/>
      <point x="142" y="260" type="curve" smooth="yes"/>
      <point x="162" y="280"/>
      <point x="182" y="307"/>
      <point x="182" y="340" type="curve" smooth="yes"/>
      <point x="182" y="400"/>
      <point x="142" y="430"/>
      <point x="82" y="430" type="curve" smooth="yes"/>
      <point x="22" y="430" type="line"/>
      <point x="22" y="380" type="line"/>
      <point x="82" y="380" type="line" smooth="yes"/>
      <point x="113" y="380"/>
      <point x="122" y="360"/>
      <point x="122" y="340" type="curve" smooth="yes"/>
      <point x="122" y="329"/>
      <point x="110" y="311"/>
      <point x="102" y="300" type="curve"/>
      <point x="81" y="276"/>
      <point x="52" y="248"/>
      <point x="52" y="180" type="curve" smooth="yes"/>
      <point x="52" y="140" type="line" smooth="yes"/>
      <point x="52" y="60"/>
      <point x="83" y="-8"/>
      <point x="187" y="-8" type="curve" smooth="yes"/>
      <point x="291" y="-8"/>
      <point x="322" y="60"/>
      <point x="322" y="140" type="curve" smooth="yes"/>
      <point x="322" y="430" type="line"/>
      <point x="262" y="430" type="line"/>
      <point x="262" y="140" type="line" smooth="yes"/>
      <point x="262" y="96"/>
      <point x="247" y="40"/>
      <point x="187" y="40" type="curve" smooth="yes"/>
      <point x="124" y="40"/>
      <point x="112" y="89"/>
    </contour>
    <contour>
      <point x="292" y="-75" type="move" name="b.uni0E38"/>
    </contour>
  </outline>
</glyph>
<glyph name="uni0E09" format="1">
  <advance width="429"/>
  <unicode hex="0E09"/>
  <outline>
    <contour>
      <point x="62" y="160" type="curve" smooth="yes" name="hr00"/>
      <point x="62" y="140" type="line" smooth="yes"/>
      <point x="62" y="49"/>
      <point x="102" y="-8"/>
      <point x="182" y="-8" type="curve" smooth="yes"/>
      <point x="227" y="-8"/>
      <point x="264" y="9"/>
      <point x="291" y="26" type="curve" smooth="yes"/>
      <point x="306" y="36"/>
      <point x="320" y="47"/>
      <point x="332" y="60" type="curve"/>
      <point x="332" y="0" type="line"/>
      <point x="392" y="0" type="line"/>
      <point x="392" y="270" type="line" smooth="yes"/>
      <point x="392" y="370"/>
      <point x="335" y="440"/>
      <point x="212" y="440" type="curve" smooth="yes"/>
      <point x="161" y="440"/>
      <point x="121" y="425"/>
      <point x="94" y="410" type="curve" smooth="yes"/>
      <point x="77" y="401"/>
      <point x="63" y="391"/>
      <point x="52" y="380" type="curve"/>
      <point x="72" y="330" type="line"/>
      <point x="84" y="341"/>
      <point x="97" y="351"/>
      <point x="112" y="360" type="curve" smooth="yes"/>
      <point x="137" y="375"/>
      <point x="172" y="390"/>
      <point x="212" y="390" type="curve" smooth="yes"/>
      <point x="293" y="390"/>
      <point x="332" y="340"/>
      <point x="332" y="260" type="curve" smooth="yes"/>
      <point x="332" y="110" type="line"/>
      <point x="320" y="99"/>
      <point x="307" y="89"/>
      <point x="293" y="80" type="curve" smooth="yes"/>
      <point x="269" y="65"/>
      <point x="237" y="50"/>
      <point x="202" y="50" type="curve" smooth="yes"/>
      <point x="132" y="50"/>
      <point x="122" y="80"/>
      <point x="122" y="140" type="curve" smooth="yes"/>
      <point x="122" y="168" type="line" smooth="yes"/>
      <point x="122" y="211"/>
      <point x="102" y="240"/>
      <point x="62" y="240" type="curve" smooth="yes"/>
      <point x="22" y="240" type="line"/>
      <point x="22" y="190" type="line"/>
      <point x="50" y="190" type="line" smooth="yes"/>
      <point x="62" y="190"/>
      <point x="62" y="171"/>
    </contour>
  </outline>
</glyph>
<glyph name="uni0E0C" format="1">
  <advance width="689"/>
  <unicode hex="0E0C"/>
    <anchor name="b.uni0E38" x="626" y="-75"/>
  <outline>
    <contour>
      <point x="392" y="0" type="line" name="hr00"/>
      <point x="392" y="60" type="line"/>
      <point x="400" y="47"/>
      <point x="411" y="36"/>
      <point x="424" y="26" type="curve" smooth="yes"/>
      <point x="447" y="9"/>
      <point x="481" y="-8"/>
      <point x="532" y="-8" type="curve" smooth="yes"/>
      <point x="623" y="-8"/>
      <point x="652" y="71"/>
      <point x="652" y="140" type="curve" smooth="yes"/>
      <point x="652" y="430" type="line"/>
      <point x="592" y="430" type="line"/>
      <point x="592" y="170" type="line" smooth="yes"/>
      <point x="592" y="90"/>
      <point x="582" y="50"/>
      <point x="502" y="50" type="curve" smooth="yes"/>
      <point x="467" y="50"/>
      <point x="440" y="65"/>
      <point x="421" y="80" type="curve" smooth="yes"/>
      <point x="410" y="89"/>
      <point x="400" y="99"/>
      <point x="392" y="110" type="curve"/>
      <point x="392" y="300" type="line" smooth="yes"/>
      <point x="392" y="400"/>
      <point x="287" y="440"/>
      <point x="197" y="440" type="curve" smooth="yes"/>
      <point x="133" y="440"/>
      <point x="91" y="412"/>
      <point x="63" y="385" type="curve" smooth="yes"/>
      <point x="46" y="368"/>
      <point x="33" y="350"/>
      <point x="22" y="330" type="curve"/>
      <point x="22" y="329"/>
      <point x="37" y="317"/>
      <point x="52" y="305" type="curve" smooth="yes"/>
      <point x="61" y="298"/>
      <point x="71" y="289"/>
      <point x="82" y="280" type="curve"/>
      <point x="78" y="274"/>
      <point x="75" y="267"/>
      <point x="72" y="259" type="curve" smooth="yes"/>
      <point x="67" y="244"/>
      <point x="62" y="225"/>
      <point x="62" y="200" type="curve" smooth="yes"/>
      <point x="62" y="70" type="line" smooth="yes"/>
      <point x="62" y="19"/>
      <point x="82" y="0"/>
      <point x="122" y="0" type="curve" smooth="yes"/>
      <point x="162" y="0" type="line"/>
      <point x="162" y="50" type="line"/>
      <point x="132" y="50" type="line"/>
      <point x="121" y="51"/>
      <point x="122" y="59"/>
      <point x="122" y="70" type="curve" smooth="yes"/>
      <point x="122" y="200" type="line" smooth="yes"/>
      <point x="122" y="231"/>
      <point x="127" y="249"/>
      <point x="132" y="262" type="curve" smooth="yes"/>
      <point x="135" y="269"/>
      <point x="138" y="275"/>
      <point x="142" y="280" type="curve"/>
      <point x="82" y="330" type="line"/>
      <point x="90" y="341"/>
      <point x="100" y="351"/>
      <point x="111" y="360" type="curve" smooth="yes"/>
      <point x="130" y="375"/>
      <point x="158" y="390"/>
      <point x="197" y="390" type="curve" smooth="yes"/>
      <point x="257" y="390"/>
      <point x="332" y="371"/>
      <point x="332" y="280" type="curve" smooth="yes"/>
      <point x="332" y="0" type="line"/>
    </contour>
    <contour>
      <point x="626" y="-75" type="move" name="b.uni0E38"/>
    </contour>
  </outline>
</glyph>
<glyph name="uni0E17" format="1">
  <advance width="424"/>
  <unicode hex="0E17"/>
  <outline>
    <contour>
      <point x="97" y="0" type="line" name="hr00"/>
      <point x="97" y="320" type="line"/>
      <point x="108" y="331"/>
      <point x="119" y="341"/>
      <point x="131" y="350" type="curve" smooth="yes"/>
      <point x="152" y="365"/>
      <point x="182" y="380"/>
      <point x="217" y="380" type="curve" smooth="yes"/>
      <point x="297" y="380"/>
      <point x="327" y="340"/>
      <point x="327" y="260" type="curve" smooth="yes"/>
      <point x="327" y="0" type="line"/>
      <point x="387" y="0" type="line"/>
      <point x="387" y="290" type="line" smooth="yes"/>
      <point x="387" y="360"/>
      <point x="338" y="440"/>
      <point x="247" y="440" type="curve" smooth="yes"/>
      <point x="196" y="440"/>
      <point x="159" y="422"/>
      <point x="134" y="405" type="curve" smooth="yes"/>
      <point x="119" y="394"/>
      <point x="107" y="383"/>
      <point x="97" y="370" type="curve"/>
      <point x="97" y="430" type="line"/>
      <point x="37" y="430" type="line"/>
      <point x="37" y="0" type="line"/>
    </contour>
  </outline>
</glyph>
<glyph name="uni0E25" format="1">
  <advance width="389"/>
  <unicode hex="0E25"/>
  <outline>
    <contour>
      <point x="352" y="0" type="line" name="hr00"/>
      <point x="352" y="270" type="line" smooth="yes"/>
      <point x="352" y="381"/>
      <point x="303" y="440"/>
      <point x="192" y="440" type="curve" smooth="yes"/>
      <point x="132" y="440"/>
      <point x="92" y="418"/>
      <point x="67" y="395" type="curve" smooth="yes"/>
      <point x="52" y="382"/>
      <point x="41" y="367"/>
      <point x="32" y="350" type="curve"/>
      <point x="52" y="300" type="line"/>
      <point x="62" y="317"/>
      <point x="74" y="332"/>
      <point x="88" y="345" type="curve" smooth="yes"/>
      <point x="112" y="368"/>
      <point x="147" y="390"/>
      <point x="192" y="390" type="curve" smooth="yes"/>
      <point x="264" y="390"/>
      <point x="292" y="340"/>
      <point x="292" y="286" type="curve" smooth="yes"/>
      <point x="292" y="260" type="line"/>
      <point x="289" y="256"/>
      <point x="284" y="253"/>
      <point x="276" y="250" type="curve" smooth="yes"/>
      <point x="261" y="245"/>
      <point x="237" y="240"/>
      <point x="192" y="240" type="curve" smooth="yes"/>
      <point x="112" y="240"/>
      <point x="22" y="209"/>
      <point x="22" y="110" type="curve" smooth="yes"/>
      <point x="22" y="30"/>
      <point x="71" y="-8"/>
      <point x="162" y="-8" type="curve" smooth="yes"/>
      <point x="177" y="-8"/>
      <point x="189" y="-7"/>
      <point x="198" y="-4" type="curve" smooth="yes"/>
      <point x="203" y="-3"/>
      <point x="208" y="-1"/>
      <point x="212" y="0" type="curve"/>
      <point x="212" y="50" type="line"/>
      <point x="208" y="48"/>
      <point x="203" y="46"/>
      <point x="198" y="45" type="curve" smooth="yes"/>
      <point x="188" y="42"/>
      <point x="176" y="40"/>
      <point x="162" y="40" type="curve" smooth="yes"/>
      <point x="122" y="40"/>
      <point x="82" y="60"/>
      <point x="82" y="110" type="curve" smooth="yes"/>
      <point x="82" y="170"/>
      <point x="152" y="190"/>
      <point x="192" y="190" type="curve" smooth="yes"/>
      <point x="232" y="190"/>
      <point x="257" y="195"/>
      <point x="272" y="200" type="curve" smooth="yes"/>
      <point x="281" y="203"/>
      <point x="287" y="206"/>
      <point x="292" y="210" type="curve"/>
      <point x="292" y="0" type="line"/>
    </contour>
  </outline>
</glyph>
<glyph name="uni0E29" format="1">
  <advance width="414"/>
  <unicode hex="0E29"/>
    <anchor name="b.uni0E38" x="303" y="-75"/>
  <outline>
    <contour>
      <point x="317" y="210" type="line" name="hr00"/>
      <point x="317" y="143" type="line" smooth="yes"/>
      <point x="317" y="99"/>
      <point x="289" y="40"/>
      <point x="226" y="40" type="curve" smooth="yes"/>
      <point x="184" y="40" type="line" smooth="yes"/>
      <point x="120" y="40"/>
      <point x="97" y="99"/>
      <point x="97" y="143" type="curve" smooth="yes"/>
      <point x="97" y="430" type="line"/>
      <point x="37" y="430" type="line"/>
      <point x="37" y="147" type="line" smooth="yes"/>
      <point x="37" y="70"/>
      <point x="79" y="-8"/>
      <point x="170" y="-8" type="curve" smooth="yes"/>
      <point x="240" y="-8" type="line" smooth="yes"/>
      <point x="331" y="-8"/>
      <point x="377" y="70"/>
      <point x="377" y="147" type="curve" smooth="yes"/>
      <point x="377" y="210" type="line"/>
      <point x="407" y="210" type="line"/>
      <point x="407" y="260" type="line"/>
      <point x="377" y="260" type="line"/>
      <point x="377" y="429" type="line"/>
      <point x="317" y="429" type="line"/>
      <point x="317" y="260" type="line"/>
      <point x="227" y="260" type="line"/>
      <point x="227" y="210" type="line"/>
    </contour>
    <contour>
      <point x="303" y="-75" type="move" name="b.uni0E38"/>
    </contour>
  </outline>
</glyph>
<glyph name="uni0E2D" format="1">
  <advance width="424"/>
  <unicode hex="0E2D"/>
    <anchor name="b.uni0E38" x="303" y="-75"/>
  <outline>
    <contour>
      <point x="22" y="300" type="curve" name="hr00"/>
      <point x="81" y="300" type="line"/>
      <point x="86" y="317"/>
      <point x="94" y="332"/>
      <point x="105" y="345" type="curve" smooth="yes"/>
      <point x="124" y="368"/>
      <point x="154" y="390"/>
      <point x="207" y="390" type="curve" smooth="yes"/>
      <point x="292" y="390"/>
      <point x="342" y="316"/>
      <point x="342" y="215" type="curve" smooth="yes"/>
      <point x="342" y="110"/>
      <point x="302" y="40"/>
      <point x="207" y="40" type="curve" smooth="yes"/>
      <point x="111" y="40"/>
      <point x="82" y="99"/>
      <point x="82" y="155" type="curve" smooth="yes"/>
      <point x="82" y="165"/>
      <point x="87" y="170"/>
      <point x="97" y="170" type="curve" smooth="yes"/>
      <point x="162" y="170" type="line"/>
      <point x="162" y="220" type="line"/>
      <point x="72" y="220" type="line" smooth="yes"/>
      <point x="32" y="220"/>
      <point x="22" y="199"/>
      <point x="22" y="155" type="curve" smooth="yes"/>
      <point x="22" y="50"/>
      <point x="102" y="-8"/>
      <point x="207" y="-8" type="curve" smooth="yes"/>
      <point x="312" y="-8"/>
      <point x="402" y="60"/>
      <point x="402" y="215" type="curve" smooth="yes"/>
      <point x="402" y="316"/>
      <point x="352" y="440"/>
      <point x="207" y="440" type="curve" smooth="yes"/>
      <point x="123" y="440"/>
      <point x="76" y="405"/>
      <point x="52" y="370" type="curve" smooth="yes"/>
      <point x="37" y="349"/>
      <point x="27" y="326"/>
    </contour>
    <contour>
      <point x="303" y="-75" type="move" name="b.uni0E38"/>
    </contour>
  </outline>
</glyph>
<glyph name="uni0E3A" format="1">
  <advance width="0"/>
  <unicode hex="0E3A"/>
    <anchor name="_b.uni0E38" x="-37" y="-75"/>
    <anchor name="_b.uni0E38_2" x="-97" y="-75"/>
  <outline>
    <contour>
      <point x="-35" y="-133" type="line" name="hr00"/>
      <point x="-35" y="-73" type="line"/>
      <point x="-95" y="-73" type="line"/>
      <point x="-95" y="-133" type="line"/>
    </contour>
    <contour>
      <point x="-37" y="-75" type="move" name="_b.uni0E38"/>
    </contour>
    <contour>
      <point x="-97" y="-75" type="move" name="_b.uni0E38_2"/>
    </contour>
  </outline>
</glyph>
<glyph name="uni0E47" format="1">
  <advance width="0"/>
  <unicode hex="0E47"/>
  <outline>
    <contour>
      <point x="-158" y="655" type="curve" smooth="yes" name="hr00"/>
      <point x="-238" y="655" type="line" smooth="yes"/>
      <point x="-267" y="655"/>
      <point x="-328" y="645"/>
      <point x="-328" y="575" type="curve" smooth="yes"/>
      <point x="-328" y="519"/>
      <point x="-286" y="505"/>
      <point x="-258" y="505" type="curve" smooth="yes"/>
      <point x="-238" y="505"/>
      <point x="-224" y="510"/>
      <point x="-213" y="515" type="curve" smooth="yes"/>
      <point x="-207" y="518"/>
      <point x="-202" y="521"/>
      <point x="-198" y="525" type="curve"/>
      <point x="-194" y="521"/>
      <point x="-189" y="518"/>
      <point x="-184" y="515" type="curve" smooth="yes"/>
      <point x="-175" y="510"/>
      <point x="-163" y="505"/>
      <point x="-148" y="505" type="curve" smooth="yes"/>
      <point x="-108" y="505"/>
      <point x="-78" y="535"/>
      <point x="-78" y="575" type="curve"/>
      <point x="-128" y="575" type="line"/>
      <point x="-128" y="564"/>
      <point x="-138" y="545"/>
      <point x="-158" y="545" type="curve" smooth="yes"/>
      <point x="-171" y="545"/>
      <point x="-178" y="552"/>
      <point x="-182" y="560" type="curve" smooth="yes"/>
      <point x="-185" y="564"/>
      <point x="-187" y="569"/>
      <point x="-188" y="575" type="curve"/>
      <point x="-207" y="575" type="line"/>
      <point x="-208" y="569"/>
      <point x="-211" y="564"/>
      <point x="-214" y="560" type="curve" smooth="yes"/>
      <point x="-221" y="552"/>
      <point x="-231" y="545"/>
      <point x="-248" y="545" type="curve" smooth="yes"/>
      <point x="-268" y="545"/>
      <point x="-278" y="563"/>
      <point x="-278" y="575" type="curve" smooth="yes"/>
      <point x="-278" y="594"/>
      <point x="-268" y="615"/>
      <point x="-228" y="615" type="curve" smooth="yes"/>
      <point x="-158" y="615" type="line" smooth="yes"/>
      <point x="-127" y="615"/>
      <point x="-109" y="620"/>
      <point x="-96" y="625" type="curve" smooth="yes"/>
      <point x="-89" y="628"/>
      <point x="-83" y="631"/>
      <point x="-78" y="635" type="curve"/>
      <point x="-78" y="685" type="line"/>
      <point x="-83" y="679"/>
      <point x="-89" y="674"/>
      <point x="-96" y="670" type="curve" smooth="yes"/>
      <point x="-109" y="662"/>
      <point x="-127" y="655"/>
    </contour>
  </outline>
</glyph>
<glyph name="uni0E4F" format="1">
  <advance width="454"/>
  <unicode hex="0E4F"/>
  <outline>
    <contour>
      <point x="227" y="271" type="curve" smooth="yes" name="hr00"/>
      <point x="176" y="271"/>
      <point x="136" y="231"/>
      <point x="136" y="180" type="curve" smooth="yes"/>
      <point x="136" y="129"/>
      <point x="176" y="89"/>
      <point x="227" y="89" type="curve" smooth="yes"/>
      <point x="278" y="89"/>
      <point x="318" y="129"/>
      <point x="318" y="180" type="curve" smooth="yes"/>
      <point x="318" y="231"/>
      <point x="278" y="271"/>
    </contour>
    <contour>
      <point x="227" y="370" type="curve" smooth="yes"/>
      <point x="122" y="370"/>
      <point x="37" y="286"/>
      <point x="37" y="180" type="curve" smooth="yes"/>
      <point x="37" y="75"/>
      <point x="122" y="-8"/>
      <point x="227" y="-8" type="curve" smooth="yes"/>
      <point x="333" y="-8"/>
      <point x="417" y="75"/>
      <point x="417" y="180" type="curve" smooth="yes"/>
      <point x="417" y="286"/>
      <point x="333" y="370"/>
    </contour>
    <contour>
      <point x="227" y="314" type="curve" smooth="yes"/>
      <point x="302" y="314"/>
      <point x="361" y="255"/>
      <point x="361" y="180" type="curve" smooth="yes"/>
      <point x="361" y="107"/>
      <point x="302" y="46"/>
      <point x="227" y="46" type="curve" smooth="yes"/>
      <point x="154" y="46"/>
      <point x="93" y="107"/>
      <point x="93" y="180" type="curve" smooth="yes"/>
      <point x="93" y="255"/>
      <point x="154" y="314"/>
    </contour>
  </outline>
</glyph>
<glyph name="uni0E55" format="1">
  <advance width="509"/>
  <unicode hex="0E55"/>
  <outline>
    <contour>
      <point x="202" y="390" type="curve" smooth="yes" name="hr00"/>
      <point x="202" y="379"/>
      <point x="204" y="369"/>
      <point x="208" y="360" type="curve"/>
      <point x="163" y="360" type="line" smooth="yes"/>
      <point x="71" y="360"/>
      <point x="22" y="266"/>
      <point x="22" y="175" type="curve" smooth="yes"/>
      <point x="22" y="84"/>
      <point x="71" y="0"/>
      <point x="163" y="0" type="curve" smooth="yes"/>
      <point x="472" y="0" type="line"/>
      <point x="472" y="50" type="line"/>
      <point x="422" y="50" type="line" smooth="yes"/>
      <point x="374" y="50"/>
      <point x="302" y="112"/>
      <point x="302" y="196" type="curve"/>
      <point x="240" y="196" type="line"/>
      <point x="240" y="147"/>
      <point x="265" y="110"/>
      <point x="290" y="86" type="curve" smooth="yes"/>
      <point x="305" y="72"/>
      <point x="322" y="60"/>
      <point x="341" y="50" type="curve"/>
      <point x="163" y="50" type="line" smooth="yes"/>
      <point x="107" y="50"/>
      <point x="82" y="111"/>
      <point x="82" y="175" type="curve" smooth="yes"/>
      <point x="82" y="239"/>
      <point x="107" y="310"/>
      <point x="163" y="310" type="curve" smooth="yes"/>
      <point x="345" y="310" type="line" smooth="yes"/>
      <point x="414" y="310"/>
      <point x="472" y="342"/>
      <point x="472" y="441" type="curve" smooth="yes"/>
      <point x="472" y="570" type="line"/>
      <point x="412" y="570" type="line"/>
      <point x="412" y="438" type="line" smooth="yes"/>
      <point x="412" y="385"/>
      <point x="388" y="368"/>
      <point x="357" y="361" type="curve"/>
      <point x="360" y="371"/>
      <point x="362" y="381"/>
      <point x="362" y="390" type="curve" smooth="yes"/>
      <point x="362" y="434"/>
      <point x="326" y="470"/>
      <point x="282" y="470" type="curve" smooth="yes"/>
      <point x="238" y="470"/>
      <point x="202" y="434"/>
    </contour>
    <contour>
      <point x="252" y="390" type="curve" smooth="yes"/>
      <point x="252" y="406"/>
      <point x="265" y="420"/>
      <point x="282" y="420" type="curve" smooth="yes"/>
      <point x="298" y="420"/>
      <point x="312" y="406"/>
      <point x="312" y="390" type="curve" smooth="yes"/>
      <point x="312" y="374"/>
      <point x="300" y="363"/>
      <point x="285" y="360" type="curve"/>
      <point x="282" y="360" type="line" smooth="yes"/>
      <point x="265" y="360"/>
      <point x="252" y="373"/>
    </contour>
  </outline>
</glyph>
<glyph name="quoteleft" format="1">
  <advance width="134"/>
  <unicode hex="2018"/>
  <outline>
    <contour>
      <point x="97" y="360" type="line" name="hr00"/>
      <point x="97" y="420" type="line" smooth="yes"/>
      <point x="97" y="445"/>
      <point x="112" y="473"/>
      <point x="127" y="494" type="curve" smooth="yes"/>
      <point x="136" y="506"/>
      <point x="146" y="518"/>
      <point x="157" y="530" type="curve"/>
      <point x="107" y="530" type="line"/>
      <point x="94" y="520"/>
      <point x="82" y="509"/>
      <point x="72" y="497" type="curve" smooth="yes"/>
      <point x="53" y="477"/>
      <point x="37" y="451"/>
      <point x="37" y="420" type="curve" smooth="yes"/>
      <point x="37" y="360" type="line"/>
    </contour>
  </outline>
</glyph>
<glyph name="trademark" format="1">
  <advance width="387"/>
  <unicode hex="2122"/>
  <outline>
    <contour>
      <point x="37" y="490" type="line" name="hr00"/>
      <point x="37" y="473" type="line"/>
      <point x="86" y="473" type="line"/>
      <point x="86" y="320" type="line"/>
      <point x="107" y="320" type="line"/>
      <point x="107" y="473" type="line"/>
      <point x="154" y="473" type="line"/>
      <point x="154" y="490" type="line"/>
    </contour>
    <contour>
      <point x="326" y="490" type="line"/>
      <point x="263" y="352" type="line"/>
      <point x="204" y="490" type="line"/>
      <point x="177" y="490" type="line"/>
      <point x="177" y="320" type="line"/>
      <point x="197" y="320" type="line"/>
      <point x="197" y="460" type="line"/>
      <point x="258" y="320" type="line"/>
      <point x="268" y="320" type="line"/>
      <point x="333" y="460" type="line"/>
      <point x="333" y="320" type="line"/>
      <point x="350" y="320" type="line"/>
      <point x="350" y="490" type="line"/>
    </contour>
  </outline>
</glyph>
<glyph name="uni0E26_uni0E45" format="1">
  <advance width="709"/>
  <outline>
    <contour>
      <point x="122" y="70" type="curve" smooth="yes" name="hr00"/>
      <point x="122" y="200" type="line" smooth="yes"/>
      <point x="122" y="231"/>
      <point x="127" y="249"/>
      <point x="132" y="262" type="curve" smooth="yes"/>
      <point x="135" y="269"/>
      <point x="138" y="275"/>
      <point x="142" y="280" type="curve"/>
      <point x="82" y="330" type="line"/>
      <point x="90" y="341"/>
      <point x="100" y="351"/>
      <point x="111" y="360" type="curve" smooth="yes"/>
      <point x="130" y="375"/>
      <point x="158" y="390"/>
      <point x="197" y="390" type="curve" smooth="yes"/>
      <point x="257" y="390"/>
      <point x="332" y="371"/>
      <point x="332" y="280" type="curve" smooth="yes"/>
      <point x="332" y="-208" type="line"/>
      <point x="352" y="-208" type="line"/>
      <point x="359" y="-203"/>
      <point x="366" y="-198"/>
      <point x="372" y="-191" type="curve" smooth="yes"/>
      <point x="383" y="-180"/>
      <point x="392" y="-167"/>
      <point x="392" y="-148" type="curve" smooth="yes"/>
      <point x="392" y="250" type="line"/>
      <point x="387" y="276"/>
      <point x="386" y="299"/>
      <point x="391" y="320" type="curve" smooth="yes"/>
      <point x="399" y="355"/>
      <point x="424" y="390"/>
      <point x="492" y="390" type="curve" smooth="yes"/>
      <point x="555" y="390"/>
      <point x="612" y="354"/>
      <point x="612" y="270" type="curve" smooth="yes"/>
      <point x="612" y="-208" type="line"/>
      <point x="632" y="-208" type="line"/>
      <point x="639" y="-203"/>
      <point x="646" y="-198"/>
      <point x="652" y="-191" type="curve" smooth="yes"/>
      <point x="663" y="-180"/>
      <point x="672" y="-167"/>
      <point x="672" y="-148" type="curve" smooth="yes"/>
      <point x="672" y="280" type="line" smooth="yes"/>
      <point x="672" y="391"/>
      <point x="579" y="440"/>
      <point x="502" y="440" type="curve" smooth="yes"/>
      <point x="419" y="440"/>
      <point x="381" y="392"/>
      <point x="370" y="370" type="curve"/>
      <point x="332" y="419"/>
      <point x="262" y="440"/>
      <point x="197" y="440" type="curve" smooth="yes"/>
      <point x="133" y="440"/>
      <point x="91" y="412"/>
      <point x="63" y="385" type="curve" smooth="yes"/>
      <point x="46" y="368"/>
      <point x="33" y="350"/>
      <point x="22" y="330" type="curve"/>
      <point x="22" y="329"/>
      <point x="37" y="317"/>
      <point x="52" y="305" type="curve" smooth="yes"/>
      <point x="61" y="298"/>
      <point x="71" y="289"/>
      <point x="82" y="280" type="curve"/>
      <point x="78" y="274"/>
      <point x="75" y="267"/>
      <point x="72" y="259" type="curve" smooth="yes"/>
      <point x="67" y="244"/>
      <point x="62" y="225"/>
      <point x="62" y="200" type="curve" smooth="yes"/>
      <point x="62" y="113" type="line" smooth="yes"/>
      <point x="62" y="92"/>
      <point x="67" y="52"/>
      <point x="52" y="50" type="curve"/>
      <point x="22" y="50" type="line"/>
      <point x="22" y="0" type="line"/>
      <point x="62" y="0" type="line" smooth="yes"/>
      <point x="102" y="0"/>
      <point x="122" y="19"/>
    </contour>
  </outline>
</glyph>
